<svg xmlns="http://www.w3.org/2000/svg" style="display:none">
<symbol viewBox="0 0 24 24" id="iconGlobal"><!-- Icon from Huge Icons by Hugeicons - undefined --><path fill="none" stroke="currentColor" stroke-linecap="round" stroke-linejoin="round" stroke-width="1.5" d="M2 12c0 1.052.18 2.062.512 3m10.502-6h8.488M11 15H2.512m18.99-6a9 9 0 0 0-8.488-6c1.6 0 2.909 3.762 2.995 8.5M21.502 9c.278.789.45 1.628.498 2.5M2.512 15A9 9 0 0 0 11 21c-1.544 0-2.816-3.5-2.982-8M2 5.297C2 4.2 2 3.65 2.187 3.224c.2-.452.542-.815.968-1.025C3.557 2 4.075 2 5.11 2H6c1.886 0 2.828 0 3.414.62C10 3.243 10 4.24 10 6.24v2.259c0 .871 0 1.307-.264 1.457s-.606-.092-1.29-.576l-.105-.073c-.5-.354-.75-.53-1.034-.621c-.283-.091-.584-.091-1.185-.091h-1.01c-1.037 0-1.555 0-1.957-.199a2.06 2.06 0 0 1-.968-1.025C2 6.945 2 6.396 2 5.297m20 12c0-1.098 0-1.647-.187-2.073a2.06 2.06 0 0 0-.968-1.025C20.443 14 19.925 14 18.89 14H18c-1.886 0-2.828 0-3.414.62C14 15.243 14 16.24 14 18.24v2.259c0 .871 0 1.307.264 1.457s.606-.092 1.29-.576l.105-.073c.5-.354.75-.53 1.034-.621c.283-.091.584-.091 1.185-.091h1.01c1.037 0 1.555 0 1.957-.199c.426-.21.769-.573.968-1.025c.187-.426.187-.975.187-2.074" color="currentColor"></path></symbol>
<symbol viewBox="0 0 24 24" id="iconLogOut"><!-- Icon from Huge Icons by Hugeicons - undefined --><path fill="none" stroke="currentColor" stroke-linecap="round" stroke-linejoin="round" stroke-width="1.5" d="M15 17.625c-.074 1.852-1.617 3.424-3.684 3.374c-.481-.012-1.076-.18-2.265-.515c-2.861-.807-5.345-2.164-5.941-5.203C3 14.724 3 14.095 3 12.837v-1.674c0-1.257 0-1.886.11-2.445c.596-3.038 3.08-4.395 5.941-5.202c1.19-.335 1.784-.503 2.265-.515c2.067-.05 3.61 1.522 3.684 3.374M21 12H10m11 0c0-.7-1.994-2.008-2.5-2.5M21 12c0 .7-1.994 2.008-2.5 2.5" color="currentColor"></path></symbol>
<symbol viewBox="0 0 24 24" id="iconSearch"><!-- Icon from Huge Icons by Hugeicons - undefined --><path fill="none" stroke="currentColor" stroke-linecap="round" stroke-linejoin="round" stroke-width="1.5" d="M17.5 17.5L22 22m-2-11a9 9 0 1 0-18 0a9 9 0 0 0 18 0" color="currentColor"></path></symbol>
<symbol viewBox="0 0 24 24" id="iconHome"><!-- Icon from Huge Icons by Hugeicons - undefined --><g fill="none" stroke="currentColor" stroke-linecap="round" stroke-linejoin="round" stroke-width="1.5" color="currentColor"><path d="m3.164 11.35l.836.209l.457 4.542c.258 2.566.387 3.849 1.244 4.624s2.147.775 4.726.775h3.146c2.58 0 3.87 0 4.726-.775c.857-.775.986-2.058 1.244-4.625L20 11.56l.836-.21a1.537 1.537 0 0 0 .509-2.75l-8.198-5.737a2 2 0 0 0-2.294 0L2.655 8.6a1.537 1.537 0 0 0 .51 2.75"></path><path d="M15 16c-.8.622-1.85 1-3 1s-2.2-.378-3-1"></path></g></symbol>
<symbol viewBox="0 0 24 24" id="iconSetting"><!-- Icon from Huge Icons by Hugeicons - undefined --><g fill="none" stroke="currentColor" stroke-linecap="round" stroke-linejoin="round" stroke-width="1.5" color="currentColor"><path d="m21.318 7.141l-.494-.856c-.373-.648-.56-.972-.878-1.101c-.317-.13-.676-.027-1.395.176l-1.22.344c-.459.106-.94.046-1.358-.17l-.337-.194a2 2 0 0 1-.788-.967l-.334-.998c-.22-.66-.33-.99-.591-1.178c-.261-.19-.609-.19-1.303-.19h-1.115c-.694 0-1.041 0-1.303.19c-.261.188-.37.518-.59 1.178l-.334.998a2 2 0 0 1-.789.967l-.337.195c-.418.215-.9.275-1.358.17l-1.22-.345c-.719-.203-1.078-.305-1.395-.176c-.318.129-.505.453-.878 1.1l-.493.857c-.35.608-.525.911-.491 1.234c.034.324.268.584.736 1.105l1.031 1.153c.252.319.431.875.431 1.375s-.179 1.056-.43 1.375l-1.032 1.152c-.468.521-.702.782-.736 1.105s.14.627.49 1.234l.494.857c.373.647.56.971.878 1.1s.676.028 1.395-.176l1.22-.344a2 2 0 0 1 1.359.17l.336.194c.36.23.636.57.788.968l.334.997c.22.66.33.99.591 1.18c.262.188.609.188 1.303.188h1.115c.694 0 1.042 0 1.303-.189s.371-.519.59-1.179l.335-.997c.152-.399.428-.738.788-.968l.336-.194c.42-.215.9-.276 1.36-.17l1.22.344c.718.204 1.077.306 1.394.177c.318-.13.505-.454.878-1.101l.493-.857c.35-.607.525-.91.491-1.234s-.268-.584-.736-1.105l-1.031-1.152c-.252-.32-.431-.875-.431-1.375s.179-1.056.43-1.375l1.032-1.153c.468-.52.702-.781.736-1.105s-.14-.626-.49-1.234"></path><path d="M15.52 12a3.5 3.5 0 1 1-7 0a3.5 3.5 0 0 1 7 0"></path></g></symbol>
<symbol viewBox="0 0 24 24" id="iconUser"><!-- Icon from Huge Icons by Hugeicons - undefined --><path fill="currentColor" fill-rule="evenodd" d="M7.246 7c0 2.62 2.13 4.75 4.75 4.75s4.75-2.13 4.75-4.75s-2.13-4.75-4.75-4.75S7.246 4.38 7.246 7m1.5 0c0-1.79 1.46-3.25 3.25-3.25s3.25 1.46 3.25 3.25s-1.46 3.25-3.25 3.25S8.746 8.79 8.746 7m-4.5 12c0 1.52 1.23 2.75 2.75 2.75h10c1.52 0 2.75-1.23 2.75-2.75c0-3.17-2.58-5.75-5.75-5.75h-4c-3.17 0-5.75 2.58-5.75 5.75m1.5 0a4.26 4.26 0 0 1 4.25-4.25h4a4.26 4.26 0 0 1 4.25 4.25c0 .69-.56 1.25-1.25 1.25h-10c-.69 0-1.25-.56-1.25-1.25" color="currentColor"></path></symbol>
<symbol viewBox="0 0 24 24" id="iconMenu"><!-- Icon from Huge Icons by Hugeicons - undefined --><path fill="none" stroke="currentColor" stroke-linecap="round" stroke-linejoin="round" stroke-width="1.5" d="M4 5h16M4 12h16M4 19h16" color="currentColor"></path></symbol>
</svg>